<svg width="25" height="24" viewBox="0 0 25 24" fill="none" xmlns="http://www.w3.org/2000/svg">
<path d="M3.5 11H21.5M20.5 17V11.6791C20.5 11.4256 20.5001 11.2988 20.4844 11.1742C20.4704 11.0635 20.447 10.954 20.4148 10.8472C20.3786 10.7269 20.327 10.6112 20.224 10.3795L18.6777 6.90039C18.372 6.21253 18.2192 5.86852 17.9775 5.61633C17.764 5.39341 17.5021 5.223 17.2116 5.11837C16.883 5 16.5063 5 15.7536 5H9.24609C8.49336 5 8.11716 5 7.78857 5.11837C7.49813 5.223 7.23604 5.39341 7.02246 5.61633C6.78084 5.86852 6.62785 6.21253 6.32214 6.90039L4.77588 10.3795C4.67291 10.6112 4.62122 10.7269 4.58496 10.8472C4.55276 10.954 4.52969 11.0635 4.51572 11.1742C4.5 11.2988 4.5 11.4256 4.5 11.6791V17M20.5 17L4.5 17M20.5 17V18C20.5 19.1046 19.6046 20 18.5 20C17.3954 20 16.5 19.1046 16.5 18V17M4.5 17V18C4.5 19.1046 5.39543 20 6.5 20C7.60457 20 8.5 19.1046 8.5 18V17" stroke="#F0FB55" stroke-width="2" stroke-linecap="round" stroke-linejoin="round"/>
</svg>
