<svg width="25" height="24" viewBox="0 0 25 24" fill="none" xmlns="http://www.w3.org/2000/svg">
<path d="M10.5 5.99998V4.59998C10.5 4.03992 10.5 3.75993 10.609 3.54602C10.7049 3.35786 10.8577 3.20487 11.0459 3.10899C11.2598 3 11.5396 3 12.0996 3H16.8369C17.0815 3 17.2038 3 17.3189 3.02763C17.4209 3.05213 17.5189 3.09251 17.6084 3.14734C17.7093 3.20918 17.7958 3.29568 17.9688 3.46863L21.0315 6.53137C21.2044 6.70432 21.2907 6.7908 21.3525 6.89172C21.4073 6.98119 21.4482 7.07875 21.4727 7.18079C21.5003 7.29587 21.5 7.41813 21.5 7.66272V16.4C21.5 16.96 21.4996 17.2401 21.3906 17.454C21.2948 17.6422 21.1425 17.7951 20.9544 17.891C20.7405 18 20.4601 18 19.9 18H14.5M14.4996 11H11.0996C10.5396 11 10.2598 11 10.0459 10.891C9.85774 10.7951 9.70487 10.6422 9.60899 10.454C9.5 10.2401 9.5 9.96005 9.5 9.4V6M21.4996 8H18.0996C17.5396 8 17.2598 7.99998 17.0459 7.89099C16.8577 7.79512 16.7049 7.64218 16.609 7.45401C16.5 7.2401 16.5 6.96005 16.5 6.4V3M14.5 19.4V10.6627C14.5 10.4181 14.5003 10.2959 14.4727 10.1808C14.4482 10.0787 14.4073 9.98119 14.3525 9.89172C14.2907 9.7908 14.2044 9.70432 14.0315 9.53137L10.9688 6.46863C10.7958 6.29568 10.7093 6.20918 10.6084 6.14734C10.5189 6.09251 10.4209 6.05213 10.3189 6.02763C10.2038 6 10.0815 6 9.83687 6H5.09961C4.53956 6 4.25981 6 4.0459 6.10899C3.85774 6.20487 3.70487 6.35786 3.60899 6.54602C3.5 6.75993 3.5 7.03992 3.5 7.59998V19.4C3.5 19.96 3.5 20.2401 3.60899 20.454C3.70487 20.6422 3.85774 20.7951 4.0459 20.891C4.25981 21 4.53956 21 5.09961 21H12.8996C13.4597 21 13.7405 21 13.9544 20.891C14.1425 20.7951 14.2948 20.6422 14.3906 20.454C14.4996 20.2401 14.5 19.96 14.5 19.4Z" stroke="#F0FB55" stroke-width="2" stroke-linecap="round" stroke-linejoin="round"/>
</svg>
