<svg width="25" height="24" viewBox="0 0 25 24" fill="none" xmlns="http://www.w3.org/2000/svg">
<path d="M4.5 17.8V12.2C4.5 11.0798 4.5 10.5199 4.71799 10.092C4.90973 9.71572 5.21547 9.40973 5.5918 9.21799C6.01962 9 6.58009 9 7.7002 9H17.3002C18.4203 9 18.98 9 19.4078 9.21799C19.7841 9.40973 20.0905 9.71572 20.2822 10.092C20.5002 10.5199 20.5 11.0798 20.5 12.2V17.8C20.5 18.9201 20.5002 19.4802 20.2822 19.908C20.0905 20.2844 19.7841 20.5902 19.4078 20.782C18.98 21 18.4203 21 17.3002 21H7.7002C6.58009 21 6.01962 21 5.5918 20.782C5.21547 20.5902 4.90973 20.2844 4.71799 19.908C4.5 19.4802 4.5 18.9201 4.5 17.8ZM9.5 8.76923V6C9.5 4.34315 10.8431 3 12.5 3C14.1569 3 15.5 4.34315 15.5 6V8.76923C15.5 8.89668 15.3964 9 15.2689 9H9.73047C9.60302 9 9.5 8.89668 9.5 8.76923Z" stroke="#F0FB55" stroke-width="2" stroke-linecap="round" stroke-linejoin="round"/>
</svg>
