<svg width="48" height="48" viewBox="0 0 48 48" fill="none" xmlns="http://www.w3.org/2000/svg">
<rect x="0.5" y="0.5" width="47" height="47" rx="15.5" stroke="#F0FB55"/>
<path d="M32 20V28.8C32 29.9201 32.0002 30.4801 31.7822 30.908C31.5905 31.2843 31.2841 31.5902 30.9078 31.782C30.48 32 29.9203 32 28.8002 32H19.2002C18.0801 32 17.5196 32 17.0918 31.782C16.7155 31.5902 16.4097 31.2843 16.218 30.908C16 30.4801 16 29.9201 16 28.8V20M32 20H16M32 20L30.6357 17.6124C30.3002 17.0251 30.1322 16.7315 29.8965 16.5179C29.6879 16.3289 29.442 16.1861 29.1744 16.0987C28.8719 16 28.5334 16 27.8571 16H20.1426C19.4662 16 19.1286 16 18.8262 16.0987C18.5586 16.1861 18.312 16.3289 18.1034 16.5179C17.8676 16.7315 17.6999 17.0251 17.3644 17.6124L16 20M24 23L24 29M24 29L27 27M24 29L21 27" stroke="white" stroke-width="2" stroke-linecap="round" stroke-linejoin="round"/>
</svg>
