<svg width="25" height="24" viewBox="0 0 25 24" fill="none" xmlns="http://www.w3.org/2000/svg">
<path fill-rule="evenodd" clip-rule="evenodd" d="M10.5862 1.59386C10.7467 1.23273 11.1048 1 11.5 1C12.5609 1 13.5783 1.42143 14.3284 2.17157C15.0786 2.92172 15.5 3.93913 15.5 5V8H20.1549C20.5876 7.996 21.0162 8.08567 21.411 8.26289C21.8078 8.44096 22.1611 8.70317 22.4465 9.03134C22.7318 9.35951 22.9424 9.7458 23.0637 10.1634C23.1849 10.5811 23.2139 11.0201 23.1487 11.4501L21.7687 20.4499C21.7687 20.4502 21.7687 20.4497 21.7687 20.4499C21.6601 21.165 21.2966 21.8175 20.7456 22.2859C20.1958 22.7532 19.4961 23.0067 18.7748 23H4.5C3.70435 23 2.94129 22.6839 2.37868 22.1213C1.81607 21.5587 1.5 20.7957 1.5 20V13C1.5 12.2044 1.81607 11.4413 2.37868 10.8787C2.94129 10.3161 3.70435 10 4.5 10H6.85013L10.5862 1.59386ZM8.5 11.2122L12.1078 3.0946C12.4092 3.19075 12.6864 3.35794 12.9142 3.58579C13.2893 3.96086 13.5 4.46957 13.5 5V9C13.5 9.55228 13.9477 10 14.5 10H20.16L20.1713 9.99994C20.3163 9.99829 20.4599 10.0282 20.5921 10.0875C20.7244 10.1469 20.8421 10.2343 20.9373 10.3437C21.0324 10.4531 21.1026 10.5818 21.143 10.7211C21.1834 10.8601 21.1931 11.0063 21.1714 11.1495C21.1714 11.1497 21.1714 11.1494 21.1714 11.1495L19.7913 20.1501C19.7551 20.3885 19.634 20.6059 19.4503 20.7621C19.2665 20.9183 19.0325 21.0028 18.7913 21.0001L8.5 21V11.2122ZM6.5 21V12H4.5C4.23478 12 3.98043 12.1054 3.79289 12.2929C3.60536 12.4804 3.5 12.7348 3.5 13V20C3.5 20.2652 3.60536 20.5196 3.79289 20.7071C3.98043 20.8946 4.23478 21 4.5 21H6.5Z" fill="#F0FB55"/>
</svg>
