<svg width="25" height="24" viewBox="0 0 25 24" fill="none" xmlns="http://www.w3.org/2000/svg">
<path d="M11.5 13C11.5 13.5523 11.9477 14 12.5 14C13.0523 14 13.5 13.5523 13.5 13H11.5ZM13.5 9C13.5 8.44772 13.0523 8 12.5 8C11.9477 8 11.5 8.44772 11.5 9H13.5ZM20.7929 6.70711C21.1834 7.09763 21.8166 7.09763 22.2071 6.70711C22.5976 6.31658 22.5976 5.68342 22.2071 5.29289L20.7929 6.70711ZM20.2071 3.29289C19.8166 2.90237 19.1834 2.90237 18.7929 3.29289C18.4024 3.68342 18.4024 4.31658 18.7929 4.70711L20.2071 3.29289ZM10.5 1C9.94772 1 9.5 1.44772 9.5 2C9.5 2.55228 9.94772 3 10.5 3V1ZM14.5 3C15.0523 3 15.5 2.55228 15.5 2C15.5 1.44772 15.0523 1 14.5 1V3ZM12.5 20C8.63401 20 5.5 16.866 5.5 13H3.5C3.5 17.9706 7.52944 22 12.5 22V20ZM5.5 13C5.5 9.13401 8.63401 6 12.5 6V4C7.52944 4 3.5 8.02944 3.5 13H5.5ZM12.5 6C16.366 6 19.5 9.13401 19.5 13H21.5C21.5 8.02944 17.4706 4 12.5 4V6ZM19.5 13C19.5 16.866 16.366 20 12.5 20V22C17.4706 22 21.5 17.9706 21.5 13H19.5ZM13.5 13V9H11.5V13H13.5ZM22.2071 5.29289L20.2071 3.29289L18.7929 4.70711L20.7929 6.70711L22.2071 5.29289ZM10.5 3H14.5V1H10.5V3Z" fill="#F0FB55"/>
</svg>
